<svg width="201" height="38" viewBox="0 0 201 38" fill="none" xmlns="http://www.w3.org/2000/svg">
<path fill-rule="evenodd" clip-rule="evenodd" d="M183.227 1.27271C182.642 0.686927 181.692 0.686927 181.106 1.27271C180.52 1.8585 180.52 2.80825 181.106 3.39403L195.212 17.5L157.5 17.5H0V20.5H157.156C157.159 20.5 157.163 20.5 157.167 20.5L195.212 20.5L181.106 34.606C180.52 35.1918 180.52 36.1416 181.106 36.7274C181.692 37.3132 182.642 37.3132 183.227 36.7274L199.894 20.0607C200.175 19.7794 200.333 19.3979 200.333 19C200.333 18.6022 200.175 18.2207 199.894 17.9394L183.227 1.27271Z" fill="white"/>
</svg>
