<svg width="145" height="135" viewBox="0 0 145 135" fill="none" xmlns="http://www.w3.org/2000/svg">
<path fill-rule="evenodd" clip-rule="evenodd" d="M81.6661 61.3358V57.8306L81.1999 57.5505C81.1774 57.6171 81.1521 57.6829 81.1268 57.7487C81.0704 57.8958 81.0138 58.0433 80.9886 58.197C80.9506 58.4342 80.9493 58.6788 80.948 58.9211L80.9473 59.0302C80.9247 61.0557 79.8191 62.3582 77.6305 62.9376C77.6305 62.6262 77.6329 62.3184 77.6352 62.0133C77.6414 61.2017 77.6475 60.4092 77.6087 59.6191C77.6003 59.4313 77.4667 59.2481 77.3335 59.0654C77.2731 58.9826 77.2128 58.9 77.1643 58.8171C77.1123 58.8975 77.048 58.9771 76.9837 59.0569C76.8411 59.2336 76.6985 59.4104 76.6884 59.5952C76.6635 60.0203 76.6688 60.4475 76.6741 60.8741C76.6811 61.4448 76.6882 62.0143 76.6229 62.576C76.5767 62.9687 76.2004 63.4906 75.8362 63.6487C75.2476 63.9043 74.6184 64.0678 73.9189 64.2496C73.6227 64.3265 73.314 64.4068 72.9904 64.4986C72.9904 64.1164 72.9927 63.7434 72.995 63.3773C73.0011 62.388 73.0069 61.4481 72.9661 60.5098C72.9578 60.3078 72.8078 60.1115 72.658 59.9153C72.5895 59.8255 72.5208 59.7357 72.4659 59.6455C72.4105 59.7389 72.3411 59.8316 72.2717 59.9243C72.1224 60.1237 71.9733 60.323 71.9633 60.529C71.9227 61.4482 71.9283 62.3686 71.9344 63.364C71.9367 63.7371 71.939 64.1221 71.939 64.5202C71.5997 64.4191 71.273 64.3261 70.9568 64.2361L70.954 64.2353L70.9523 64.2348C70.1389 64.0032 69.394 63.7911 68.6781 63.5122C68.4304 63.4164 68.241 62.9017 68.2192 62.5689C68.1888 62.0734 68.1918 61.5756 68.1949 61.0774C68.1979 60.5791 68.201 60.08 68.1706 59.5832C68.1606 59.4041 68.0133 59.2329 67.8662 59.0618C67.799 58.9836 67.7318 58.9055 67.6777 58.8266C67.6335 58.9025 67.5783 58.9782 67.5231 59.0539C67.4023 59.2194 67.2813 59.3853 67.2746 59.5545C67.2428 60.3532 67.247 61.1533 67.2517 62.0295V62.0367C67.2534 62.3612 67.2552 62.6961 67.2552 63.0453C66.9557 62.9201 66.6737 62.8084 66.406 62.7024C65.7886 62.4579 65.2476 62.2437 64.7445 61.9631C64.4702 61.8099 64.2759 61.3622 64.2176 61.0198C64.1462 60.5935 64.1145 60.1608 64.0827 59.728C64.0561 59.366 64.0294 59.0033 63.9797 58.6447C63.9493 58.43 63.8473 58.2245 63.7456 58.0195C63.701 57.9296 63.6564 57.8397 63.6179 57.7492C63.5695 57.762 63.521 57.7742 63.4728 57.7864L63.3851 57.8088L63.339 57.8207L63.2925 57.833V61.1922C60.692 60.5721 58.65 58.1802 58.7544 55.8051C58.762 55.6139 59.1075 55.4227 59.4156 55.2522C59.501 55.2049 59.5835 55.1592 59.6552 55.1156C59.889 54.9742 60.1408 54.8589 60.392 54.7438C60.4982 54.6952 60.6044 54.6465 60.709 54.596C60.6191 54.5021 60.5331 54.3899 60.4471 54.2775C60.2567 54.0289 60.0658 53.7797 59.83 53.7269C59.4966 53.6517 59.1626 53.5728 58.8281 53.4937C57.404 53.1571 55.9707 52.8182 54.5295 52.762L54.2373 52.751C50.5027 52.6111 50.4679 52.6097 49.2508 48.9767C49.0975 48.5196 48.9453 48.0623 48.7931 47.6052C48.4416 46.5488 48.0903 45.4931 47.7259 44.442C47.4297 43.5896 47.6506 42.9025 48.4568 42.5338C50.7902 41.4611 50.761 39.7205 50.324 37.8291C50.1162 36.9279 49.8995 36.0276 49.6828 35.1271C49.0232 32.3862 48.3629 29.6428 47.9517 26.8658C47.4928 23.77 47.3665 20.5928 47.4637 17.4612C47.6045 12.8666 50.12 9.34945 53.5145 6.43804C59.0968 1.64714 65.6818 -0.071929 73.0123 0.00229274C79.8887 0.0741203 85.9881 1.92488 91.2207 6.31114C95.363 9.78281 97.728 14.0757 97.5313 19.6471C97.3347 25.2114 96.6208 30.6679 95.0789 36.0214C94.8046 36.9767 94.535 37.9416 94.3724 38.9208C94.1271 40.4077 94.637 41.6216 96.0599 42.2919C97.2473 42.8522 97.4876 43.6519 97.0603 44.8251C96.6607 45.9246 96.2892 47.0345 95.9176 48.1446C95.6436 48.9631 95.3692 49.7828 95.0838 50.5976C94.5108 52.2377 93.9305 52.6279 92.1409 52.7141C91.7143 52.7345 91.287 52.75 90.8598 52.7655C89.6334 52.8098 88.4068 52.8542 87.1949 53.0158C86.4221 53.1175 85.6731 53.4696 84.943 53.8126C84.8312 53.8652 84.7199 53.9175 84.6089 53.9687C84.4602 54.0379 84.3805 54.2534 84.3009 54.4684C84.2649 54.5658 84.2288 54.6632 84.1864 54.7468C84.263 54.7823 84.3383 54.8239 84.4136 54.8655C84.5722 54.9532 84.7307 55.0408 84.9003 55.0701L84.9292 55.0753C85.6405 55.2032 85.9992 55.2677 86.1236 55.4713C86.2501 55.6783 86.1345 56.0292 85.9014 56.7368L85.9007 56.7389C85.8718 56.8268 85.8365 56.9138 85.8013 57.0009C85.7299 57.177 85.6588 57.3527 85.6409 57.5338C85.4471 59.5352 83.9866 60.2287 82.3574 61.0023C82.1292 61.1106 81.8978 61.2205 81.6661 61.3358ZM59.3274 35.0015C55.6318 35.0206 54.0657 36.5721 54.0657 39.4883C54.0657 39.5888 54.0701 39.69 54.0744 39.7913C54.0839 40.0108 54.0933 40.2306 54.0584 40.4436C53.8472 41.7245 54.3838 42.584 55.5371 43.1228C55.8498 43.269 56.1611 43.4198 56.4724 43.5706C57.2827 43.9633 58.0938 44.3564 58.9341 44.6694C59.4658 44.8682 60.1457 44.9017 60.7042 44.7748C63.5038 44.1379 65.9804 42.8091 68.2289 41.0709C68.9646 40.5034 69.0107 39.8905 68.139 39.371C67.6048 39.053 67.0744 38.7272 66.544 38.4013C65.2571 37.6105 63.9692 36.8192 62.6248 36.1411C61.7132 35.6802 60.7084 35.3977 59.9792 35.1928C59.7238 35.121 59.5018 35.0586 59.3298 35.0015H59.3274ZM91.041 40.1898C91.041 36.2034 88.7367 34.3263 85.1383 35.1643C84.167 35.3917 83.1909 35.7413 82.3168 36.2129C80.5491 37.1706 78.8373 38.2289 77.1303 39.2872C76.0693 39.9432 76.0086 40.4843 77.0454 41.1666C78.299 41.9942 79.6181 42.731 80.9348 43.4665C81.1609 43.5928 81.387 43.7191 81.6126 43.8458C84.0578 45.2201 86.4276 45.0334 88.8168 43.5992L88.9101 43.5432C90.33 42.6911 91.6517 41.8979 91.041 40.1898ZM72.7039 42.5769C72.6104 42.5721 72.5169 42.5667 72.4234 42.5613L72.3337 42.5562L72.2427 42.551L72.143 42.5457C71.8437 43.1191 71.5433 43.6918 71.2429 44.2646C70.4418 45.792 69.6407 47.3194 68.8602 48.857C68.5931 49.3837 68.36 49.9631 68.2774 50.5401C68.1439 51.4931 68.5421 52.3382 69.4648 52.6614C69.9043 52.8147 70.6861 52.671 71.0212 52.3574C72.33 51.1267 72.8301 51.0717 74.0636 52.4531C74.7629 53.2337 75.5156 53.1523 75.9551 52.4077C76.3339 51.766 76.5743 50.8346 76.4116 50.1355C76.177 49.1232 75.6849 48.1598 75.2007 47.2119C75.1388 47.0909 75.0765 46.9689 75.0155 46.8482C74.5076 45.8417 73.9609 44.855 73.4138 43.8678C73.1763 43.4392 72.9384 43.0097 72.7039 42.5793V42.5769Z" fill="#FF342E"/>
<path d="M110.223 79.307C110.274 79.7847 110.322 80.2485 110.368 80.7024C110.483 81.8136 110.592 82.8654 110.721 83.916C110.854 84.9982 110.619 85.738 109.232 85.5512V88.8673C109.454 88.9374 109.696 88.9869 109.93 89.0348C110.423 89.1357 110.88 89.2291 111.027 89.4922C111.478 90.3014 112.049 91.5345 111.724 92.1833C111.108 93.4124 111.659 94.1157 112.199 94.8037C112.457 95.133 112.712 95.4588 112.836 95.837C113.197 95.8434 113.502 95.6439 113.795 95.4519C114.268 95.1422 114.712 94.8517 115.317 95.4754C115.522 95.686 115.765 95.879 116.007 96.0711C116.909 96.7878 117.796 97.4923 116.599 99.05L117.989 99.5574C118.699 99.8165 119.351 100.055 119.982 100.285C120.039 100.233 120.084 100.193 120.122 100.16C120.188 100.102 120.227 100.068 120.254 100.027C121.361 98.2311 121.375 98.233 123.37 98.4951L123.476 98.5089C124.343 98.6239 124.913 98.8489 124.869 99.8497C124.84 100.513 125.256 100.76 125.899 100.654C126.082 100.625 126.265 100.593 126.448 100.562C126.741 100.512 127.034 100.462 127.327 100.42C128.349 100.271 128.844 99.7611 128.587 98.7005C128.381 97.8457 128.735 97.3525 129.59 97.1298C130.015 97.0197 130.425 96.8258 130.818 96.6271C131.389 96.3373 131.882 96.3038 132.29 96.8832C132.761 97.5512 133.259 97.4698 133.764 96.9144L134.355 96.2619L134.36 96.2564C134.859 95.7065 135.366 95.1483 135.898 94.5584C135.801 94.4419 135.701 94.3287 135.602 94.2172C134.905 93.4276 134.283 92.7236 135.208 91.5656C135.337 91.405 135.455 91.2365 135.57 91.0713C136.115 90.2884 136.608 89.5825 137.969 90.1698C138.026 89.8328 138.083 89.5076 138.139 89.1909C138.288 88.3372 138.427 87.5447 138.53 86.7484C138.557 86.5401 138.346 86.2671 138.183 86.0756C138.077 85.951 137.93 85.8336 137.786 85.7185C137.54 85.5216 137.302 85.3312 137.292 85.1227C137.249 84.3192 137.305 83.5098 137.361 82.7011C137.384 82.3723 137.407 82.0437 137.423 81.7157C137.43 81.5618 137.454 81.4009 137.478 81.24C137.53 80.8827 137.583 80.5247 137.459 80.2408C135.143 74.892 131.379 71.1043 125.659 69.1794C122.352 68.066 119.331 67.9391 116.07 69.3637C112.733 70.8212 109.352 72.1808 105.972 73.5407C103.299 74.6157 100.626 75.6909 97.9733 76.8146C95.1664 78.0046 92.5392 78.2081 89.7226 76.8146C85.3204 74.6359 80.8527 72.5888 76.3631 70.5944C75.3474 70.1432 75.3945 69.4602 75.4419 68.7719C75.461 68.4959 75.48 68.219 75.4307 67.9559C75.2777 67.1442 75.6784 66.754 76.4262 66.4523C77.2296 66.1274 78.0207 65.772 78.8118 65.4167C79.7111 65.0128 80.6105 64.6088 81.5277 64.2496C81.9526 64.0844 82.6422 64.1443 83.0307 64.3837C84.75 65.4413 86.4423 66.5433 88.1348 67.6454C88.768 68.0577 89.4012 68.4701 90.0358 68.8801C90.3733 69.098 90.7181 69.3086 91.0774 69.4858C92.5003 70.1802 92.9422 69.924 93.0612 68.3557C93.1268 67.4771 95.0814 65.5473 95.9045 65.758C96.3804 65.8802 96.8042 66.2031 97.2446 66.5387C97.4424 66.6894 97.6436 66.8427 97.8543 66.9814C98.0449 66.8655 98.2396 66.7518 98.4356 66.6374C98.9237 66.3523 99.4196 66.0627 99.8769 65.7245C100.156 65.5193 100.331 65.1437 100.486 64.8124L100.499 64.7859C100.571 64.6303 100.613 64.4442 100.655 64.2616C100.723 63.9639 100.789 63.6754 100.977 63.5433C101.601 63.1041 102.305 62.7709 103.006 62.439C103.18 62.3567 103.354 62.2743 103.526 62.1905C103.626 62.1427 103.864 62.236 103.956 62.3366C104.864 63.3165 105.715 62.896 106.562 62.4771C106.745 62.3864 106.929 62.2955 107.113 62.2193C107.288 62.1474 107.47 62.0134 107.567 61.8577C107.646 61.7283 107.709 61.5605 107.77 61.397C107.872 61.1222 107.97 60.8595 108.137 60.8115C108.948 60.5792 109.794 60.4679 110.638 60.3568L110.64 60.3565L110.909 60.321L111.107 60.2943C111.216 60.2799 111.42 60.4403 111.466 60.5601C111.88 61.6546 112.611 61.4157 113.41 61.1546L113.53 61.1155C118.688 59.4539 123.998 59.2959 129.347 59.6287C131.127 59.7385 132.901 59.9286 134.677 60.1188L134.683 60.1194L134.688 60.1199C135.077 60.1616 135.465 60.2032 135.854 60.244C139.649 60.6415 142.213 62.5401 143.34 66.2129C144.807 70.999 145.229 75.8928 144.889 80.8561C144.542 85.9248 143.566 90.8689 141.759 95.6478C140.412 99.2104 138.295 102.289 135.849 105.177C135.254 105.881 134.644 106.573 134.034 107.266C132.949 108.498 131.864 109.73 130.86 111.024C129.922 112.235 128.861 112.47 127.477 112.185C126.741 112.032 126.005 111.871 125.269 111.709C123.164 111.246 121.057 110.783 118.925 110.533C116.553 110.255 115.291 109.175 114.404 107.032C112.554 102.566 110.582 98.1492 108.612 93.7332L108.608 93.7238C108.077 92.5346 107.546 91.3454 107.018 90.1554C106.098 88.0844 106.064 86.09 107.232 84.0955C107.611 83.4488 107.966 82.7883 108.322 82.1277C108.647 81.524 108.972 80.9203 109.315 80.327C109.452 80.0882 109.655 79.8852 109.881 79.6588C109.99 79.5493 110.105 79.4343 110.221 79.307H110.223Z" fill="#FF342E"/>
<path d="M7.1149 90.1548C8.44072 89.6373 8.93203 90.3405 9.47201 91.1133C9.59009 91.2823 9.7105 91.4547 9.84248 91.6183C10.7227 92.7097 10.1544 93.3655 9.50491 94.1149C9.37507 94.2648 9.24187 94.4185 9.11647 94.58C10.0562 95.5904 10.9643 96.5672 11.8651 97.5369C12.083 97.3817 12.2861 97.2044 12.4758 97.0387C12.8569 96.7059 13.184 96.4203 13.4677 96.4571C14.3588 96.572 15.245 96.991 16.0366 97.4483C16.2238 97.5552 16.2777 97.8834 16.3321 98.2142C16.3581 98.3725 16.3842 98.5314 16.4251 98.667C16.4699 98.8179 16.5043 98.9998 16.5389 99.1822C16.6168 99.5934 16.6953 100.008 16.8937 100.077C17.6961 100.356 18.5702 100.445 19.4328 100.533L19.4363 100.533C19.5644 100.546 19.6923 100.559 19.8196 100.573C19.8997 100.582 20.128 100.123 20.1207 99.8881C20.094 98.904 20.6864 98.7101 21.5241 98.4946C23.2359 98.0517 24.4233 98.3845 24.8409 100.367C26.0283 99.9359 27.0748 99.5577 28.2621 99.1291C27.8639 97.9583 27.6915 96.9862 28.9493 96.0333C30.1172 95.1498 30.9549 94.9056 32.0403 96.0501C32.1976 95.8021 32.349 95.5658 32.4952 95.3374C32.8657 94.7589 33.2035 94.2315 33.5239 93.6941C33.6356 93.5074 33.7594 93.153 33.672 93.0525C32.9589 92.2343 33.2656 91.4781 33.5707 90.726C33.7102 90.382 33.8494 90.0388 33.8905 89.6909C33.9172 89.4731 34.4635 89.1546 34.7695 89.157C35.6315 89.1642 35.9107 88.8003 35.8646 88.0006C35.834 87.4774 35.8414 86.9506 35.8486 86.4342C35.8518 86.2114 35.8548 85.9894 35.8548 85.7716C35.6828 85.6941 35.4792 85.6264 35.2806 85.5604C34.8655 85.4223 34.4722 85.2916 34.4344 85.094C34.2353 84.0549 34.1989 82.9559 34.296 81.8977C34.3463 81.3524 34.5399 80.8197 34.7373 80.2767C34.826 80.0329 34.9154 79.787 34.9929 79.5369C35.0566 79.6106 35.1378 79.6923 35.227 79.782C35.4537 80.0102 35.7323 80.2906 35.9083 80.6239C36.103 80.9946 36.3034 81.364 36.504 81.7337C37.2389 83.0886 37.9764 84.4481 38.4456 85.8889C38.7831 86.9256 38.6666 88.3286 38.2295 89.351C35.3862 96.0261 32.4094 102.649 29.4301 109.269C29.2747 109.616 28.7429 109.932 28.3326 110.018C25.9758 110.512 23.614 110.98 21.2523 111.448L21.2488 111.448L21.2444 111.449C19.9686 111.702 18.693 111.955 17.4182 112.211C16.1264 112.47 15.1212 112.23 14.2398 111.115C13.2142 109.818 12.1452 108.553 11.0766 107.288C9.32688 105.216 7.57779 103.146 6.02063 100.942C2.67226 96.2033 1.4145 90.6463 0.554948 85.0174C-0.277894 79.5752 -0.205051 74.1475 0.98958 68.7556C1.17628 67.9154 1.42668 67.0845 1.67567 66.2583L1.68645 66.2225C2.69654 62.8825 4.91341 60.8546 8.44389 60.371C14.4972 59.5401 20.5699 59.035 26.6547 60.0046C27.7469 60.1796 28.8226 60.4576 29.8989 60.7358C30.6195 60.9221 31.3406 61.1085 32.067 61.264C32.4166 61.3382 33.0625 61.252 33.1669 61.0413C33.5991 60.1722 34.228 60.2321 34.988 60.4236C35.2577 60.491 35.5339 60.5333 35.8098 60.5755C36.0929 60.6189 36.3759 60.6622 36.6513 60.7325C36.8844 60.7923 37.1733 60.9623 37.268 61.1611C38.0304 62.758 39.4387 63.2345 40.949 62.4204C41.2088 62.2792 41.6459 62.26 41.9178 62.3773C42.6196 62.6742 43.3019 63.0405 43.9356 63.4619C44.193 63.6319 44.3969 63.9958 44.4649 64.3047C44.6689 65.2528 46.1525 66.845 47.0849 66.8666C47.4491 66.8737 47.8813 66.5385 48.1775 66.2536C48.7651 65.691 49.258 65.6503 49.9719 66.11C50.0832 66.1819 50.1953 66.2521 50.3068 66.322C51.3243 66.9595 52.29 67.5646 52.0843 69.0836C52.0601 69.2704 52.8371 69.8043 53.1503 69.7421C53.7962 69.6128 54.4153 69.2393 54.9859 68.8753C57.2951 67.41 59.5994 65.9352 61.8672 64.41C62.4815 63.9982 62.9817 63.9528 63.6422 64.264C64.3529 64.5982 65.0737 64.9125 65.7943 65.2268C66.7719 65.6531 67.7507 66.0799 68.7024 66.5553C69.0957 66.7516 69.4041 67.3191 69.5279 67.7764C69.6687 68.2959 69.6396 68.8993 69.5303 69.4356C69.4575 69.7971 69.2001 70.2712 68.8893 70.4172C63.8995 72.7708 58.9073 75.1147 53.8763 77.3821C51.6036 78.4068 49.3794 77.7915 47.2063 76.8673L46.0623 76.3804C41.7745 74.5549 37.4865 72.7293 33.1718 70.9703C30.9355 70.0581 28.6604 69.2105 26.3415 68.5425C25.1906 68.2121 23.8503 68.0996 22.6823 68.3223C16.3085 69.5337 11.3503 72.7756 8.29091 78.5601C8.0481 79.0174 7.82715 79.4914 7.64261 79.9727C7.3998 80.6096 7.28082 81.1387 7.58433 81.9336C7.85542 82.6447 7.80208 83.4762 7.74878 84.3071C7.72617 84.6596 7.70357 85.012 7.70574 85.355C7.70574 85.4292 7.67417 85.5465 7.62318 85.5704C6.15098 86.2335 6.42568 87.2125 6.69997 88.1901C6.81292 88.5927 6.92581 88.995 6.9166 89.3749C6.91352 89.4936 6.95163 89.6142 7.00724 89.7903C7.03891 89.8905 7.07625 90.0087 7.1149 90.1548Z" fill="#FF342E"/>
<path d="M82.8626 98.9118C82.6268 98.9393 82.4255 98.9597 82.2475 98.9777C81.9024 99.0126 81.6441 99.0387 81.3917 99.0907C78.4269 99.6941 76.4505 101.679 74.6852 103.896C74.3016 104.38 74.0491 105.103 74.0418 105.718C74.018 107.461 74.0241 109.205 74.0302 110.948C74.0385 113.307 74.0467 115.665 73.9811 118.022C73.9131 120.431 74.355 122.693 75.2655 124.884C76.045 126.761 76.8705 128.624 77.7738 130.443C78.002 130.903 78.5532 131.353 79.0534 131.514C80.9734 132.128 82.9135 132.685 84.8538 133.242C85.4336 133.408 86.0134 133.575 86.5927 133.743C92.4322 135.439 92.4614 135.419 97.3946 132.055L97.5313 131.961C101.582 129.199 104.91 125.688 108.239 122.177L108.837 121.546C110.158 120.155 111.362 118.649 112.527 117.127C113.35 116.052 113.839 114.792 113.324 113.427C112.851 112.171 112.383 110.914 111.915 109.656C110.411 105.613 108.907 101.569 107.253 97.5847C106.118 94.8455 104.711 92.212 103.307 89.5839C103.061 89.1224 102.814 88.661 102.57 88.1993C102.317 87.7228 101.489 87.1769 101.018 87.2488C99.4908 87.4834 97.7232 86.3509 97.6139 84.8449C97.5969 84.6223 97.5556 84.2631 97.4245 84.2105L97.123 84.0889C96.2146 83.7219 95.2993 83.3522 94.3505 83.1474C94.1145 83.0976 93.8403 83.2609 93.5558 83.4303C93.3749 83.5379 93.1899 83.6481 93.0078 83.7077C92.6581 83.8202 92.2478 83.9064 91.903 83.8346C91.6125 83.7732 91.3337 83.6578 91.0542 83.5422C90.8104 83.4413 90.566 83.3401 90.3126 83.2743C89.5307 83.0708 89.1179 82.6686 89.2636 81.833C89.4142 80.9806 89.0159 80.4994 88.2098 80.236C87.6756 80.0612 87.1439 79.841 86.6631 79.556C85.9784 79.1538 85.4369 79.2472 84.9974 79.8745C84.4851 80.6047 83.9291 80.4874 83.2516 80.0876C81.365 78.9742 79.8255 77.4611 78.8324 75.5911C77.9818 73.9895 76.59 73.5166 75.1021 73.0111C74.6194 72.8471 74.1265 72.6796 73.6387 72.469C73.6387 73.1315 73.6376 73.7712 73.6365 74.3957V74.3991C73.6343 75.6036 73.6323 76.7531 73.6387 77.9016C73.6416 78.4727 73.6035 79.059 73.5654 79.6455C73.476 81.0211 73.3865 82.3981 73.8257 83.5832C74.2602 84.7586 75.221 85.7447 76.1818 86.7308C76.6008 87.1608 77.0197 87.5908 77.395 88.0365C77.4894 88.1485 77.5804 88.2656 77.6715 88.3829C77.9036 88.6818 78.1364 88.9817 78.4294 89.2001L78.4681 89.229C79.0089 89.6333 79.6028 90.0772 80.2359 90.2104C83.8659 90.979 87.5032 91.7236 91.1624 92.3389C94.3384 92.8728 96.9364 94.3334 99.0173 96.6917C100.18 98.0085 101.283 99.3972 102.271 100.846C104.549 104.183 105.491 107.854 104.728 111.862C104.685 112.085 104.516 112.281 104.345 112.48C104.248 112.593 104.151 112.707 104.075 112.827C103.917 113.075 103.755 113.321 103.593 113.567L103.592 113.569C103.1 114.318 102.607 115.068 102.225 115.87C102.116 116.095 102.259 116.437 102.411 116.801C102.483 116.974 102.558 117.152 102.609 117.325C101.999 118.123 101.351 118.97 100.639 119.899C99.6681 118.929 98.8547 119.327 98.0582 120C97.8446 120.179 97.6066 120.347 97.3541 120.462C96.6499 120.783 96.4533 121.238 96.7082 121.989C96.7956 122.246 96.5965 122.801 96.3707 122.914C95.7398 123.227 95.077 123.478 94.348 123.753C94.0528 123.865 93.7469 123.98 93.4278 124.106C93.3189 122.25 92.1062 122.27 90.8896 122.291L90.7156 122.293C90.6472 122.293 90.5752 122.285 90.5037 122.276C90.3621 122.259 90.2224 122.243 90.1159 122.293C90.0398 122.33 89.9563 122.366 89.8705 122.404C89.521 122.556 89.1332 122.725 89.0572 122.971C88.6881 124.171 87.9791 124.283 86.9593 123.847C86.702 123.737 86.4203 123.656 86.1435 123.625C85.3471 123.531 85.0824 123.122 85.3592 122.396C85.6384 121.666 85.2936 121.271 84.74 120.799C83.6692 119.89 82.6834 119.48 81.5641 120.668C81.5233 120.713 81.4432 120.721 81.3386 120.733C81.2811 120.739 81.2161 120.747 81.1464 120.761C80.8691 120.419 80.5907 120.075 80.3072 119.725L80.3036 119.721C79.8857 119.204 79.4569 118.675 79.0048 118.118C80.0319 117.301 80.2772 116.53 79.8425 115.218C79.4659 114.085 78.7071 114.001 77.9396 113.915C77.6334 113.881 77.3258 113.847 77.0405 113.746C77.0798 113.399 77.0615 113.056 77.0435 112.719C76.9972 111.848 76.9531 111.021 77.9146 110.289C78.5071 109.839 78.66 108.605 78.6673 107.724C78.669 107.401 78.333 107.076 77.9751 106.729C77.8082 106.567 77.6365 106.401 77.4921 106.228C77.58 106.07 77.6656 105.907 77.752 105.743C77.9713 105.326 78.1966 104.898 78.4804 104.511C78.6317 104.302 78.9055 104.173 79.1706 104.048C79.2455 104.013 79.3203 103.978 79.3909 103.941C79.5438 103.863 79.7057 103.798 79.8674 103.734C80.1139 103.636 80.3598 103.538 80.571 103.391C81.3769 102.826 81.6168 101.99 81.8721 101.101C82.0828 100.366 82.304 99.596 82.8626 98.9118Z" fill="#FF342E"/>
<path d="M44.2816 119.733C44.4349 119.685 44.5986 119.614 44.7614 119.543C45.1189 119.386 45.4728 119.232 45.7057 119.337C46.4195 119.662 47.068 120.129 47.7136 120.595C47.8851 120.718 48.0563 120.842 48.2285 120.962C48.3184 121.024 48.3645 121.283 48.3111 121.388C47.6431 122.688 48.5022 122.988 49.3694 123.29C49.4571 123.32 49.5456 123.351 49.632 123.383C50.0035 123.519 50.3714 123.662 50.7298 123.802L50.7376 123.805L50.7404 123.806C50.8891 123.864 51.0361 123.921 51.1811 123.977C51.2187 123.956 51.2544 123.941 51.2866 123.926C51.3502 123.898 51.4006 123.876 51.4263 123.838C51.5292 123.683 51.6221 123.495 51.7146 123.308C51.9084 122.915 52.1005 122.527 52.3782 122.454C53.2911 122.217 54.3037 122.246 55.2603 122.337C55.5469 122.363 55.8771 122.914 56.0155 123.285C56.2947 124.046 56.7245 124.269 57.4845 123.979C57.8973 123.821 58.3295 123.689 58.7665 123.629C59.5581 123.519 59.7985 123.129 59.5484 122.396C59.1787 121.314 59.8347 120.956 60.4892 120.598C60.7762 120.441 61.0628 120.284 61.2626 120.067C61.7616 119.523 62.168 119.831 62.5663 120.133C62.6507 120.197 62.7346 120.261 62.819 120.316C63.0784 120.484 63.3401 120.65 63.6677 120.857L63.6786 120.864C64.0658 120.386 64.4448 119.919 64.8319 119.442C65.1755 119.019 65.5254 118.588 65.893 118.135C64.849 117.325 64.5503 116.538 65.0796 115.18C65.5146 114.065 66.2646 113.985 67.0809 113.897C67.3445 113.869 67.615 113.84 67.8841 113.775C67.8841 113.555 67.8846 113.339 67.885 113.124C67.8864 112.489 67.8877 111.871 67.8768 111.254C67.8744 111.11 67.8137 110.866 67.7263 110.839C66.6397 110.517 66.5379 109.669 66.4395 108.85C66.4027 108.543 66.3664 108.24 66.2791 107.971C66.1861 107.686 66.4942 107.275 66.8404 106.813C67.0096 106.587 67.1879 106.35 67.3329 106.108C67.2635 105.984 67.1885 105.848 67.1086 105.702C66.881 105.288 66.6133 104.8 66.3204 104.327C66.2087 104.145 65.9877 103.953 65.7862 103.913C64.1521 103.585 63.1833 102.426 62.9987 100.76C62.9692 100.489 62.8653 100.226 62.7494 99.9329C62.6175 99.5995 62.4701 99.2269 62.399 98.7579C62.7665 98.8852 63.1518 98.9888 63.5372 99.0925C64.3915 99.3223 65.2459 99.5521 65.9052 100.039C67.3137 101.077 68.5641 102.329 69.809 103.576C70.0596 103.827 70.3109 104.078 70.5623 104.327C70.827 104.588 70.8998 105.127 70.9022 105.538C70.9071 106.619 70.9154 107.7 70.9238 108.78C70.9533 112.599 70.9829 116.418 70.8561 120.232C70.806 121.714 70.2437 123.212 69.7054 124.646L69.5983 124.932C68.9015 126.795 68.0443 128.607 67.146 130.386C66.8983 130.879 66.318 131.372 65.7862 131.535C61.9328 132.72 58.06 133.848 54.1725 134.921C53.6214 135.074 52.8856 134.997 52.3587 134.758C47.9711 132.773 44.2027 129.912 40.8786 126.498C38.5047 124.059 36.2124 121.544 33.9212 119.03L33.0261 118.048C31.4648 116.339 31.1638 114.481 31.9189 112.197C34.4004 104.679 37.234 97.331 41.4347 90.5552C41.7125 90.1081 41.8692 89.584 42.0242 89.0656C42.0643 88.9316 42.1042 88.798 42.1461 88.6662C42.5128 87.5097 43.0761 87.165 44.2731 87.4044C45.2735 87.6055 47.2986 86.0301 47.2573 85.0221C47.2306 84.39 47.4515 84.0788 48.0537 83.9112C48.3833 83.8193 48.706 83.7044 49.0285 83.5897C49.4284 83.4474 49.8277 83.3053 50.239 83.2073C50.5789 83.1259 51.1156 83.1259 51.3195 83.327C52.1305 84.1386 52.9172 83.8801 53.8472 83.5712C55.0127 83.1857 55.9159 82.7715 55.6683 81.2967C55.627 81.0501 56.0155 80.6311 56.3069 80.4539C56.5878 80.282 56.8967 80.1548 57.206 80.0274C57.4953 79.9082 57.7851 79.7889 58.0527 79.6327C58.8442 79.1706 59.4828 79.2185 60.0267 79.9798C60.4346 80.552 60.8911 80.5185 61.4787 80.1881C63.3168 79.1538 64.8854 77.7628 65.8178 75.9527C66.8325 73.9791 68.5686 73.4038 70.4329 72.7861C70.6742 72.7061 70.9177 72.6254 71.162 72.5409C71.1759 72.6738 71.1917 72.7956 71.2066 72.9101C71.2359 73.1356 71.2616 73.3338 71.2616 73.5321C71.263 74.1275 71.2653 74.7229 71.2675 75.3183L71.2675 75.332C71.2768 77.7989 71.2861 80.2658 71.2373 82.7308C71.2252 83.3078 70.9654 83.9734 70.6012 84.4283C69.3264 86.0205 68.0031 87.584 66.5948 89.0612C66.0849 89.5951 65.3273 90.0572 64.6086 90.2105C61.1388 90.9575 57.6617 91.6853 54.1555 92.2312C50.154 92.8537 47.1699 94.9319 44.732 97.9918C42.1995 101.169 40.0264 104.495 39.9462 108.713C39.9295 109.563 40.0197 110.415 40.1098 111.266C40.1372 111.525 40.1647 111.785 40.189 112.044C40.2085 112.259 40.3323 112.487 40.461 112.671C40.8438 113.213 41.2327 113.75 41.6217 114.287C41.9629 114.758 42.3045 115.23 42.6414 115.704C42.7289 115.827 42.7944 115.999 42.7871 116.145C42.6925 118 42.8769 118.446 44.2816 119.733Z" fill="#FF342E"/>
<path d="M9.9938 35.4062C10.4722 34.7218 10.9403 34.0522 10.1447 33.0283L10.9481 32.4211C11.4647 32.0308 11.9428 31.6695 12.409 31.3167C13.6814 32.2457 15.6481 31.3933 16.1532 29.7485C20.6355 29.3271 24.7074 30.2273 28.1286 33.3422C30.751 35.7269 31.8825 38.8682 32.7372 42.1243C33.1274 43.6095 33.4549 45.1105 33.7824 46.6114C34.0662 47.9125 34.3501 49.2135 34.6748 50.5042C35.7092 54.6128 38.0766 57.6367 42.117 59.3414C44.4164 60.3111 46.6624 61.4148 48.8744 62.5712C51.8049 64.1028 54.6723 63.5168 57.6927 62.8997C58.1758 62.8009 58.6632 62.7013 59.1551 62.6096C58.8516 62.0345 58.5594 61.4741 58.2734 60.9255L58.2717 60.9222C57.5057 59.453 56.784 58.0688 56.0082 56.7149C55.7873 56.3294 55.2021 55.9535 54.7553 55.9176C53.7617 55.837 52.7646 55.7949 51.7679 55.7529C50.5458 55.7015 49.3238 55.65 48.1096 55.5274C47.3884 55.4555 46.5289 55.0389 46.0724 54.5002C45.5388 53.8719 45.1485 53.1247 44.7586 52.378C44.6091 52.0919 44.4597 51.8058 44.3023 51.5266C43.8822 50.7843 43.8944 50.0852 44.6082 49.5058C45.3707 48.8881 45.4872 48.165 45.0866 47.2911C44.9852 47.0722 44.9218 46.8353 44.8585 46.5988C44.7868 46.3311 44.7152 46.0638 44.5888 45.8235C44.4358 45.5314 44.0571 45.1315 43.807 45.1507C42.3598 45.2632 41.7989 44.5593 41.7091 43.2472C41.6872 42.9001 41.5464 42.5385 41.3788 42.2273C41.0389 41.5928 41.0875 41.0972 41.7552 40.7285C42.4327 40.3574 42.5443 39.8115 42.2991 39.1196C42.1291 38.6311 41.9616 38.1259 41.9058 37.6184C41.8086 36.7588 41.357 36.5146 40.529 36.5362C40.1259 36.5457 39.3999 36.3159 39.3635 36.1052C39.3032 35.7524 39.1125 35.4157 38.9216 35.0784C38.528 34.3836 38.1333 33.6865 38.8755 32.8418C38.9143 32.7963 38.9167 32.6694 38.8827 32.6144C38.7421 32.3935 38.6061 32.1684 38.4701 31.9434C38.0873 31.31 37.7043 30.6762 37.2171 30.1339C37.0701 29.9697 36.6979 30.0047 36.3214 30.0402C36.1382 30.0574 35.954 30.0748 35.7942 30.0693L35.7534 30.0681C35.5994 30.064 35.381 30.058 35.3498 29.9879C35.1236 29.4795 34.6559 29.141 34.1879 28.8023C33.4657 28.2796 32.7427 27.7564 32.9047 26.6072C32.9242 26.4683 32.7348 26.1954 32.5939 26.1571C32.1878 26.0474 31.8171 25.7966 31.4455 25.5453C30.6731 25.0228 29.8974 24.4981 28.7939 25.2353C28.6606 25.3248 28.3643 25.2006 28.102 25.0906C28.0347 25.0624 27.9696 25.0351 27.9101 25.0126C27.5294 24.8684 27.1523 24.694 26.7752 24.5196C25.9884 24.1557 25.202 23.792 24.3845 23.703C21.2644 23.3606 18.2292 23.7149 15.3859 25.3023C14.3671 25.8716 13.279 26.3181 12.1899 26.765C11.4101 27.085 10.6299 27.4052 9.87409 27.7708C9.26464 28.0653 8.62847 28.5681 8.31039 29.1403C7.47477 30.6416 6.67775 32.1635 5.88061 33.6857C5.14205 35.096 4.40339 36.5065 3.63384 37.9009C1.32956 42.0765 0.887647 46.5681 1.11832 51.1962C1.16202 52.0988 1.28343 52.8554 2.30809 53.3199C3.76904 53.9816 5.19654 54.7138 6.62397 55.446C7.26766 55.7761 7.91133 56.1063 8.55805 56.43C8.63217 56.4668 8.70707 56.5077 8.78258 56.5488C9.03107 56.6844 9.28638 56.8236 9.54144 56.8346C12.732 56.9663 15.9347 56.612 18.7367 55.1706C20.4729 54.2771 22.0514 53.0872 23.631 51.8964C24.371 51.3386 25.1113 50.7806 25.8681 50.2528C26.9996 49.4627 27.2497 48.4092 26.9826 47.2456C26.7532 47.3651 26.5224 47.4812 26.2919 47.5971C25.7417 47.8738 25.1937 48.1495 24.6734 48.4667C24.5908 48.5169 24.5079 48.5649 24.4257 48.6125C23.8337 48.9552 23.2792 49.2762 23.1534 50.2432C23.0855 50.7556 21.6699 51.2895 20.8079 51.4092C20.7059 51.423 20.5778 51.3163 20.4211 51.1857C20.1149 50.9307 19.6996 50.5847 19.1568 50.8681C19.0064 50.9466 18.8569 51.0313 18.7069 51.1162C18.2807 51.3575 17.8514 51.6005 17.3915 51.7085C16.6704 51.8761 15.8885 51.8881 15.1528 51.8019C15.0512 51.7892 14.99 51.5376 14.9221 51.2581C14.8749 51.0636 14.8243 50.8557 14.7546 50.7053L14.7508 50.6971C14.6156 50.4042 14.4511 50.048 14.1937 49.9033C13.2152 49.3526 12.1954 48.8929 11.2654 50.849C11.0804 50.5852 10.9105 50.3552 10.756 50.1459C10.4239 49.6962 10.1625 49.3424 9.97364 48.9551C9.80125 48.6032 9.68713 48.0262 9.86438 47.746C10.2844 47.0804 10.0708 46.6638 9.73569 46.0413C9.15294 44.9591 8.29582 44.9807 7.2493 45.2201C7.20517 44.9339 7.11278 44.6448 7.02209 44.3611C6.7236 43.4271 6.44352 42.5508 7.96317 42.0238C8.08943 41.9807 8.16227 41.6144 8.15742 41.3989C8.15411 41.2386 8.15898 41.0742 8.16387 40.9097C8.19122 39.9875 8.21876 39.0593 6.80739 38.8155C7.13518 37.8602 7.42898 37.0054 7.73492 36.1172L7.9138 36.1499C8.44844 36.2478 8.9056 36.3316 9.43946 36.4308C9.53709 36.0596 9.76661 35.7313 9.9938 35.4062Z" fill="#FF342E"/>
<path d="M103.145 44.2185C103.096 44.4455 103.044 44.6796 102.982 44.9209L102.973 44.9304C102.861 44.9455 102.755 44.9657 102.653 44.985C102.448 45.0243 102.262 45.0598 102.082 45.0406C100.914 44.9137 100.418 45.5242 100.253 46.5633C100.21 46.8363 100.122 47.1116 99.9983 47.3582C99.5782 48.189 99.7336 48.881 100.455 49.4628C101.21 50.0733 101.22 50.7964 100.785 51.5889C100.703 51.7379 100.621 51.8867 100.539 52.0354C100.254 52.5506 99.9686 53.0657 99.7142 53.5952C99.01 55.0629 97.8372 55.6447 96.2153 55.6519C94.2776 55.6591 92.34 55.7788 90.4072 55.9009C90.0163 55.9272 89.4408 56.0781 89.2854 56.3534C88.4435 57.8474 87.6515 59.3687 86.835 60.937C86.5706 61.4447 86.3037 61.9573 86.0318 62.4755C86.2232 62.541 86.4025 62.6134 86.5745 62.6828C86.9302 62.8264 87.2542 62.9572 87.5882 62.9879C89.7128 63.1866 91.8447 63.3398 93.9741 63.4643C94.3092 63.4835 94.6807 63.3159 94.9988 63.1627C96.6908 62.3526 98.3789 61.5359 100.067 60.719C101.388 60.08 102.709 59.4409 104.031 58.8051C106.615 57.5625 108.514 55.6591 109.519 53.011C110.196 51.2273 110.743 49.3838 111.163 47.5258C111.299 46.9259 111.429 46.3247 111.559 45.7238C112.228 42.6292 112.896 39.5429 114.395 36.6799C117.036 31.6304 123.196 28.8219 129.031 29.8658C129.417 31.3694 131.365 32.1787 132.758 31.3646L134.992 33.0502C133.969 34.0492 134.607 34.8143 135.174 35.4939C135.278 35.6188 135.38 35.7409 135.468 35.861C135.666 36.1287 136.124 36.2118 136.656 36.3086C136.92 36.3564 137.201 36.4076 137.479 36.4859C137.49 36.5144 137.505 36.5532 137.524 36.6003C137.604 36.8026 137.745 37.1595 137.867 37.5226C137.985 37.8704 138.085 38.2241 138.138 38.408C138.151 38.4558 138.162 38.4921 138.168 38.5139C137.99 38.7384 137.807 38.9323 137.641 39.1076C137.321 39.4462 137.066 39.7151 137.044 40.0007C137.032 40.1572 137.005 40.3217 136.978 40.4891C136.858 41.2313 136.729 42.0311 137.816 42.4452C138.056 42.5362 138.28 43.0462 138.26 43.3478C138.233 43.7851 138.119 44.2175 138.008 44.6416C137.963 44.8144 137.918 44.9857 137.879 45.1555C136.594 45.1076 135.59 45.6966 134.868 46.9225C135.745 48.6822 135.677 48.869 133.615 50.2768C133.035 49.4987 132.431 49.2593 131.326 49.6328C130.475 49.9192 130.407 50.4756 130.338 51.0293C130.302 51.3227 130.266 51.6153 130.114 51.8666C129.89 51.8592 129.671 51.866 129.454 51.8726C128.683 51.8962 127.948 51.9187 127.181 51.3039C126.644 50.8754 125.537 50.1379 124.583 51.122C124.362 51.3494 123.847 51.5936 123.643 51.4907C123.567 51.452 123.486 51.4117 123.401 51.3699C122.772 51.0581 121.979 50.6656 121.936 50.2433C121.844 49.343 121.383 48.9935 120.751 48.6415C120.169 48.3156 119.579 48.0006 118.897 47.6364C118.572 47.4628 118.226 47.2781 117.85 47.0757C117.943 47.3882 118.003 47.7158 118.062 48.0324C118.183 48.6836 118.295 49.2881 118.661 49.6184C122.599 53.1667 126.78 56.3079 132.414 56.7604C134.39 56.9185 136.233 56.9687 137.904 55.628C138.736 54.96 139.737 54.3039 140.757 54.0956C143.724 53.4923 144.302 51.6846 143.998 49.0438C143.918 48.3456 143.905 47.6407 143.893 46.9361C143.866 45.427 143.839 43.919 143.146 42.4811C141.174 38.3894 139.224 34.288 137.287 30.1819C136.57 28.6639 135.475 27.6463 133.832 27.0933C132.423 26.6192 131.042 26.0135 129.733 25.3143C127.21 23.9664 124.563 23.3966 121.706 23.6072C120.976 23.6594 120.356 23.8957 119.723 24.1367C119.542 24.2054 119.361 24.2746 119.175 24.3399C118.92 24.4297 118.656 24.5585 118.384 24.6911C117.46 25.1418 116.445 25.6365 115.368 24.7948C115.325 24.7613 115.203 24.7852 115.138 24.8187C114.902 24.9376 114.663 25.0519 114.423 25.1663C113.752 25.4875 113.08 25.8088 112.479 26.229C112.296 26.3553 112.274 26.702 112.252 27.051C112.241 27.2178 112.23 27.385 112.202 27.529C112.2 27.5391 112.198 27.5499 112.196 27.561C112.175 27.6738 112.145 27.83 112.085 27.8475C111.549 28.0007 111.181 28.4532 110.812 28.9062C110.231 29.6212 109.648 30.3375 108.4 29.8802C108.266 29.8323 107.924 29.9592 107.887 30.0717C107.756 30.469 107.448 30.8095 107.139 31.1504C106.524 31.8303 105.907 32.5116 106.69 33.6487C106.766 33.7562 106.664 34.0095 106.593 34.1841L106.588 34.197C106.538 34.3212 106.489 34.4464 106.441 34.5717C106.257 35.0428 106.074 35.5155 105.818 35.9448C105.656 36.2178 105.236 36.5697 104.99 36.529C103.631 36.3064 103.206 37.0246 103.06 38.1595C103.031 38.3839 102.971 38.6045 102.911 38.8249C102.845 39.0678 102.778 39.3105 102.754 39.5577C102.73 39.8283 102.795 40.2736 102.97 40.3694C104.162 41.0111 103.961 41.8634 103.531 42.8618C103.351 43.281 103.252 43.7334 103.145 44.2185Z" fill="#FF342E"/>
</svg>
