<svg width="92" height="46" viewBox="0 0 92 46" fill="none" xmlns="http://www.w3.org/2000/svg">
<path d="M3.98518 0H0V46H3.98518V0Z" fill="#FF342E"/>
<path d="M9.33899 22.3845H5.32772V26.3089H9.33899V46H13.3225V0H9.33899V22.3845Z" fill="#FF342E"/>
<path d="M48.7389 3.92601H44.7292V0H52.5985V42.074L46 46H44.7292V41.8699L48.7389 39.4834V3.92601Z" fill="#FF342E"/>
<path d="M43.3851 42.6686V3.92601H43.3867V0H39.3999V46H43.3867V42.667L43.3851 42.6686Z" fill="#FF342E"/>
<path d="M62.8983 3.98707V22.3845H62.8999V45.8779H58.9767V0H62.8999V3.98707H62.8983Z" fill="#FF342E"/>
<path d="M64.2408 3.98707H68.2521V22.3845H64.2408V26.3089H68.2521V46H72.2992V26.3089L70.3074 24.3467L72.2992 22.3234V0H64.2408V3.98707Z" fill="#FF342E"/>
<path d="M84.0036 0H92V46H88.0148V26.3089H84.0036V22.3845H88.0148V3.92601H84.0036V0Z" fill="#FF342E"/>
<path d="M82.661 0H78.6758V46H82.661V0Z" fill="#FF342E"/>
<path d="M29.0398 22.3845V0H33.0233V24.9365L28.3546 27.7199V46H24.3695L24.3711 27.7199L19.7008 24.9365V0H23.6843V22.3845L26.3612 24.0012L29.0398 22.3845Z" fill="#FF342E"/>
</svg>
